<svg xmlns="http://www.w3.org/2000/svg" viewBox="0 0 28.35 28.35"><defs><style>.cls-1{fill:#908fb2;}.cls-2{fill:#fff;}.cls-3{fill:none;}</style></defs><title>CV-logo_3</title><g id="Слой_2" data-name="Слой 2"><g id="Слой_1-2" data-name="Слой 1"><circle class="cls-1" cx="14.17" cy="14.17" r="14.17"/><path class="cls-2" d="M11.15,17.45H8.52l-1,2.84H5.18L9.83,7.38h3.39l0,12.91H11.1Zm-.05-2.13v-5l-1.81,5Z"/><path class="cls-2" d="M22.4,11.9c0,2.81.41,4.28-2.1,4.28H17.87v4.11H15.63V7.38H20.3C22.81,7.38,22.4,9.08,22.4,11.9Zm-2.24,0c0-1.51,1.56-2.41.14-2.41H17.87v4.58H20.3C21.72,14.07,20.16,13.4,20.16,11.9Z"/><line class="cls-3" x1="10.76" y1="20.29" x2="12.99" y2="20.29"/></g></g></svg>